<?xml version="1.0" encoding="utf-8"?>
<!-- Generator: Adobe Illustrator 15.0.0, SVG Export Plug-In  -->
<!DOCTYPE svg PUBLIC "-//W3C//DTD SVG 1.1//EN" "http://www.w3.org/Graphics/SVG/1.1/DTD/svg11.dtd" [
	<!ENTITY ns_flows "http://ns.adobe.com/Flows/1.0/">
]>
<svg version="1.1"
	 xmlns="http://www.w3.org/2000/svg" xmlns:xlink="http://www.w3.org/1999/xlink" xmlns:a="http://ns.adobe.com/AdobeSVGViewerExtensions/3.0/"
	 x="0px" y="0px" width="133px" height="133px" viewBox="0 0 133 133" overflow="visible" enable-background="new 0 0 133 133"
	 xml:space="preserve">
<defs>
</defs>
<path d="M66.339,0C29.55,0,0,29.55,0,66.338c0,36.791,29.55,66.341,66.339,66.341c36.79,0,66.34-29.55,66.34-66.341
	C132.679,29.55,103.129,0,66.339,0z M43.12,61.819l7.54,7.535c1.203,1.207,1.203,3.013,0,4.223l-4.223,4.223
	c-1.208,1.205-3.016,1.205-4.219,0l-7.539-7.54c-4.83-4.825-7.542-11.159-7.542-18.094c0-13.869,11.458-25.33,25.33-25.33
	c6.635,0,13.271,2.714,18.094,7.539l7.54,7.54c1.203,1.207,1.203,3.013,0,4.223l-4.223,4.222c-1.206,1.204-3.018,1.204-4.221,0
	l-7.539-7.539c-2.413-2.413-5.726-3.919-9.35-3.919c-7.234,0-13.266,6.027-13.266,13.265C39.203,56.087,40.708,59.402,43.12,61.819z
	 M80.21,105.54c-6.633,0-13.269-2.712-18.092-7.539l-7.54-7.538c-1.203-1.205-1.203-3.017,0-4.221l4.223-4.223
	c1.206-1.207,3.018-1.207,4.221,0l7.539,7.538c2.413,2.415,5.726,3.921,9.35,3.921c7.234,0,13.266-6.033,13.266-13.267
	c0-3.622-1.506-6.938-3.919-9.352l-7.54-7.535c-1.207-1.207-1.207-3.013,0-4.225l4.221-4.221c1.206-1.205,3.018-1.205,4.223,0
	l7.54,7.54c4.823,4.825,7.539,11.157,7.539,18.092C105.542,94.081,94.083,105.54,80.21,105.54L80.21,105.54z"/>
</svg>
